<?xml version="1.0" encoding="UTF-8"?>
<svg width="77px" height="76px" viewBox="0 0 77 76" version="1.1" xmlns="http://www.w3.org/2000/svg" xmlns:xlink="http://www.w3.org/1999/xlink">
    <!-- Generator: Sketch 45.1 (43504) - http://www.bohemiancoding.com/sketch -->
    <title>Shape</title>
    <desc>Created with Sketch.</desc>
    <defs></defs>
    <g id="Page-1" stroke="none" stroke-width="1" fill="none" fill-rule="evenodd">
        <g id="monadiclogofinal" transform="translate(-329.000000, 0.000000)" fill="#3C78DC">
            <path d="M351.285,64.386 C351.2974,64.386 351.3097,64.386 351.3222,64.3862 L356.7534,54.1479 L339.9322,42.9996 L351.2773,64.3862 C351.28,64.3862 351.2823,64.386 351.285,64.386 L351.285,64.386 Z M395.6875,42.9263 L384.3034,64.3864 C384.2911,64.3862 384.2788,64.386 384.2664,64.386 C384.2637,64.386 384.2612,64.386 384.2585,64.386 L378.8089,54.1126 L395.6875,42.9263 Z M388.0833,65.9946 L400.6652,42.2765 C403.53,42.1831 405.838,39.8181 405.838,36.9312 C405.838,33.9855 403.4353,31.5829 400.4896,31.5829 C399.6389,31.5829 398.8331,31.7841 398.1176,32.1403 L372.8321,7.712 C373.0776,7.0994 373.2131,6.4311 373.2131,5.7326 C373.2131,2.7869 370.8105,0.3843 367.8648,0.3843 C364.9191,0.3843 362.5165,2.7869 362.5165,5.7326 C362.5165,6.4239 362.6484,7.0859 362.8891,7.6935 L337.5939,32.1313 C336.8831,31.7808 336.0836,31.5829 335.2399,31.5829 C332.2943,31.5829 329.8916,33.9855 329.8916,36.9312 C329.8916,39.7665 332.1183,42.0988 334.9119,42.2694 L347.4871,65.975 C346.5296,66.9423 345.9366,68.2714 345.9366,69.7343 C345.9366,72.68 348.3393,75.0827 351.285,75.0827 C354.2306,75.0827 356.6333,72.68 356.6333,69.7343 C356.6333,69.4359 356.6081,69.1428 356.5607,68.8576 L367.7546,61.4389 L378.9859,68.8825 C378.9412,69.1599 378.918,69.4446 378.918,69.7343 C378.918,72.68 381.3207,75.0827 384.2664,75.0827 C387.212,75.0827 389.6147,72.68 389.6147,69.7343 C389.6147,68.2812 389.0294,66.9602 388.0833,65.9946 L388.0833,65.9946 Z M355.9856,64.3288 L364.0504,58.9838 L360.1812,56.4197 L355.9856,64.3288 Z M364.0149,40.4591 L358.6805,50.5149 L340.3861,38.3902 C340.518,37.9262 340.5883,37.4364 340.5883,36.9312 C340.5883,36.3277 340.4876,35.7476 340.302,35.2057 L365.7329,10.6368 C365.7631,10.65 365.7936,10.6627 365.824,10.6753 L365.824,31.8107 C363.8855,32.6155 362.5165,34.5293 362.5165,36.7529 C362.5165,38.1895 363.0878,39.4966 364.0149,40.4591 Z M362.1084,52.7869 L367.7774,42.1 C367.7862,42.1002 367.7951,42.1004 367.8038,42.1006 L373.454,52.7516 L367.7546,56.5289 L362.1084,52.7869 Z M371.6179,40.5568 L376.8817,50.4798 L395.31,38.2663 C395.1996,37.8394 395.1413,37.3919 395.1413,36.9312 C395.1413,36.335 395.2394,35.7619 395.4207,35.2256 L369.9772,10.6445 C369.9571,10.6532 369.9371,10.6618 369.9168,10.6703 L369.9168,31.8155 C371.8491,32.6231 373.2131,34.5337 373.2131,36.7529 C373.2131,38.2385 372.6016,39.5859 371.6179,40.5568 L371.6179,40.5568 Z M379.6343,64.4022 L375.381,56.3844 L371.4589,58.9838 L379.6343,64.4022 Z" id="Shape"></path>
        </g>
    </g>
</svg>