<?xml version="1.0" standalone="no"?>
<!DOCTYPE svg PUBLIC "-//W3C//DTD SVG 20010904//EN"
 "http://www.w3.org/TR/2001/REC-SVG-20010904/DTD/svg10.dtd">
<svg version="1.0" xmlns="http://www.w3.org/2000/svg"
 width="616.000000pt" height="616.000000pt" viewBox="0 0 616.000000 616.000000"
 preserveAspectRatio="xMidYMid meet">
<metadata>
Created by potrace 1.11, written by Peter Selinger 2001-2013
</metadata>
<g transform="translate(0.000000,616.000000) scale(0.100000,-0.100000)"
fill="#000000" stroke="none">
<path d="M3030 6083 c-14 -2 -32 -7 -40 -10 -8 -4 -17 -7 -20 -8 -42 -10 -113
-57 -161 -104 -61 -62 -100 -131 -118 -209 -12 -57 -7 -173 10 -213 l13 -32
-131 -126 c-71 -69 -226 -218 -343 -331 -117 -113 -245 -236 -284 -275 -113
-109 -529 -512 -616 -595 -43 -41 -176 -170 -296 -287 -328 -316 -356 -343
-359 -343 -1 0 -18 7 -38 15 -101 42 -226 36 -336 -18 -148 -72 -241 -226
-237 -394 0 -39 4 -75 9 -79 4 -4 7 -16 7 -27 0 -28 54 -126 93 -167 52 -56
118 -101 170 -115 4 -2 8 -3 10 -5 1 -1 27 -7 57 -13 51 -11 57 -15 78 -57 13
-25 47 -88 74 -140 72 -134 118 -221 173 -325 69 -130 133 -251 170 -320 31
-57 58 -108 175 -330 76 -145 137 -260 180 -340 21 -38 58 -108 82 -155 25
-47 61 -115 82 -152 42 -78 43 -91 15 -121 -28 -29 -64 -102 -79 -157 -38
-141 4 -298 109 -407 96 -99 258 -151 384 -121 23 6 48 11 55 11 6 0 12 4 12
9 0 4 7 8 17 8 44 0 178 117 206 180 7 14 14 27 17 30 16 14 34 103 36 173 l1
78 87 60 c48 32 91 59 96 59 5 0 10 3 12 8 4 10 97 72 107 72 5 0 11 3 13 8 2
4 48 36 103 72 55 36 102 68 103 73 2 4 7 7 11 7 4 0 86 52 181 115 96 63 178
115 182 115 4 0 37 -20 74 -45 36 -25 69 -45 74 -45 4 0 10 -3 12 -7 3 -7 84
-62 458 -309 74 -49 137 -92 138 -96 2 -5 10 -8 18 -8 8 0 14 -4 14 -10 0 -5
6 -10 13 -10 6 0 30 -14 52 -31 39 -29 40 -32 41 -92 1 -34 4 -78 8 -97 12
-64 67 -162 120 -213 223 -217 595 -130 702 163 46 128 13 314 -73 410 -13 14
-23 28 -23 31 0 3 12 28 26 55 29 54 102 192 172 324 24 47 59 112 77 145 18
33 58 110 90 170 32 61 72 137 90 170 73 134 105 195 160 300 32 61 76 144 98
185 22 41 45 84 50 95 6 11 14 27 18 35 19 35 205 383 214 401 8 15 26 21 58
19 1 0 27 7 57 16 101 30 210 117 253 201 101 196 51 422 -121 550 -20 15 -39
30 -42 33 -7 7 -100 41 -130 47 -65 13 -185 1 -231 -22 -15 -8 -31 -15 -34
-15 -4 0 -45 37 -92 83 -47 45 -123 118 -168 162 -46 44 -181 175 -302 291
-120 116 -252 244 -293 283 -41 40 -167 162 -280 271 -113 109 -239 231 -280
271 -41 39 -172 165 -290 280 -118 114 -239 231 -269 260 l-53 51 13 45 c13
48 17 149 7 198 -19 92 -55 155 -131 227 -41 39 -122 90 -142 89 -2 0 -22 6
-42 13 -38 13 -135 18 -183 9z m-85 -1664 l0 -843 -40 -23 c-63 -35 -123 -93
-159 -153 -30 -49 -39 -72 -53 -130 -14 -61 -9 -168 11 -225 12 -37 39 -86 65
-123 l31 -42 -33 -63 c-19 -34 -60 -111 -92 -172 -32 -60 -70 -132 -85 -160
-15 -27 -53 -99 -85 -160 -54 -102 -126 -237 -130 -242 0 -2 -109 69 -241 156
-871 574 -1224 812 -1220 820 13 20 14 155 1 196 l-13 44 72 70 c75 74 135
132 481 466 119 116 264 255 320 310 103 100 434 419 590 570 46 44 172 166
280 270 109 105 218 211 244 236 25 26 48 45 51 44 3 -2 5 -383 5 -846z m442
744 c56 -54 188 -181 293 -283 105 -102 232 -225 283 -274 228 -220 537 -518
607 -586 127 -123 506 -490 629 -608 l115 -110 -11 -34 c-5 -19 -9 -76 -7
-126 l2 -92 -31 -16 c-16 -9 -39 -25 -50 -35 -12 -10 -25 -19 -29 -19 -5 0
-14 -5 -21 -11 -7 -5 -127 -86 -267 -179 -140 -93 -260 -173 -267 -179 -7 -6
-15 -11 -18 -11 -3 0 -63 -38 -133 -85 -70 -47 -134 -90 -142 -95 -8 -6 -95
-64 -192 -129 -98 -65 -178 -117 -178 -114 0 2 -9 -5 -20 -15 -11 -10 -33 -25
-48 -33 -15 -8 -33 -20 -40 -26 -24 -23 -37 -14 -70 50 -33 64 -116 221 -215
407 -30 58 -80 152 -110 210 l-56 104 29 36 c96 121 119 265 69 419 -22 66
-95 161 -154 199 -11 7 -33 21 -50 32 l-30 20 -1 840 c0 462 3 840 6 840 3 0
52 -44 107 -97z m-245 -2483 c44 -82 111 -207 176 -330 27 -52 71 -133 96
-180 108 -202 141 -273 128 -277 -7 -3 -18 -10 -25 -16 -6 -7 -64 -46 -127
-87 -63 -41 -117 -77 -120 -80 -3 -4 -23 -17 -45 -30 -22 -13 -42 -27 -45 -30
-3 -3 -22 -16 -44 -28 l-38 -23 -222 147 c-121 81 -223 148 -224 150 -2 1 12
31 31 66 19 35 60 113 92 173 32 61 70 133 85 160 15 28 56 104 90 170 35 66
71 134 81 152 10 18 30 56 45 84 14 28 27 49 29 47 1 -1 18 -32 37 -68z m2181
-16 c-3 -9 -35 -68 -69 -131 -35 -64 -64 -121 -64 -128 0 -8 -4 -15 -8 -17 -4
-1 -42 -68 -84 -148 -41 -80 -92 -176 -113 -215 -21 -38 -58 -108 -83 -155
-25 -47 -62 -116 -82 -155 -20 -38 -61 -115 -90 -170 -29 -55 -69 -129 -88
-165 -19 -36 -62 -117 -95 -180 -99 -189 -124 -232 -130 -223 -3 4 -31 58 -63
118 -32 61 -72 137 -90 170 -18 33 -48 89 -66 125 -19 36 -58 110 -88 165 -29
55 -68 128 -86 163 -19 34 -34 66 -34 70 0 4 21 20 48 37 26 16 49 32 52 35 6
6 120 83 135 90 6 3 79 51 163 108 84 56 157 102 161 102 5 0 11 4 13 8 2 5
66 50 143 100 77 50 145 95 150 99 6 5 102 69 215 143 113 74 207 137 210 140
5 4 42 28 47 29 1 1 0 -6 -4 -15z m-4016 -273 c7 -6 14 -11 17 -11 4 0 524
-343 541 -357 6 -5 28 -20 50 -33 22 -13 46 -30 53 -36 6 -7 21 -16 32 -19 11
-3 20 -11 20 -16 0 -5 7 -9 15 -9 8 0 15 -4 15 -10 0 -5 7 -10 15 -10 8 0 15
-4 15 -10 0 -5 5 -10 12 -10 6 0 26 -11 44 -25 18 -14 35 -25 38 -25 3 0 14
-7 25 -16 18 -16 18 -19 3 -53 -10 -20 -19 -38 -23 -41 -3 -3 -18 -30 -33 -60
-16 -30 -48 -91 -71 -135 -23 -44 -66 -125 -95 -180 -29 -55 -65 -122 -80
-150 -15 -27 -47 -87 -70 -133 -24 -45 -47 -79 -50 -75 -4 5 -34 60 -67 123
-34 63 -76 144 -95 180 -19 36 -59 110 -88 165 -29 55 -65 123 -80 150 -15 28
-55 104 -90 170 -61 118 -116 221 -170 320 -15 28 -58 108 -95 179 -37 72 -73
139 -80 150 -28 46 -125 236 -125 246 0 8 382 -238 417 -269z m2459 -886 c26
-49 72 -135 101 -190 29 -55 70 -134 91 -175 20 -41 39 -77 42 -80 14 -14 48
-90 37 -83 -7 4 -87 58 -177 118 -91 61 -169 112 -175 115 -5 3 -72 47 -149
98 l-138 94 73 49 c41 27 81 53 89 58 8 6 44 30 80 55 36 24 68 41 71 38 4 -4
28 -47 55 -97z m-1121 2 c72 -47 136 -91 143 -97 9 -8 -16 -30 -110 -93 -68
-45 -127 -84 -133 -87 -14 -7 -129 -84 -135 -90 -3 -3 -43 -30 -90 -60 -47
-30 -87 -57 -90 -60 -11 -12 -60 -40 -60 -35 0 7 170 336 181 350 4 6 35 64
69 130 76 147 70 137 84 132 6 -3 70 -43 141 -90z"/>
</g>
</svg>
